<?xml version="1.0" ?>
<svg id="Layer_1" style="enable-background:new 0 0 512 512;" version="1.1" viewBox="0 0 512 512" xml:space="preserve" xmlns="http://www.w3.org/2000/svg" xmlns:xlink="http://www.w3.org/1999/xlink">
    <g id="XMLID_3761_">
        <path d="M357.9,132.2H319V6H192.2v126.2h-34.5v146.9H120v226.1h271.2V279.1h-33.2V132.2z M314.5,137h38.1v41   h-38.1V137z M314.5,186h38.1v41h-38.1V186z M314.5,235.1h38.1v41h-38.1V235.1z M252.4,186v41h-38.1v-41H252.4z M214.2,177.9v-41   h38.1v41H214.2z M252.4,235.1v41h-38.1v-41H252.4z M236.7,337.9h38.1v41h-38.1V337.9z M236.7,329.9v-41h38.1v41H236.7z    M264.3,276.1v-41h38.1v41H264.3z M302.5,186v41h-38.1v-41H302.5z M264.3,177.9v-41h38.1v41H264.3z M289.1,288.9h38.1v41h-38.1   V288.9z M256.7,18.6h50.6v50.2h-50.6V18.6z M256.7,72.2h50.6v50.2h-50.6V72.2z M202.6,18.6h50.6v50.2h-50.6V18.6z M202.6,72.2h50.6   v50.2h-50.6V72.2z M164.1,137h38.1v41h-38.1V137z M164.1,186h38.1v41h-38.1V186z M164.1,235.1h38.1v41h-38.1V235.1z M131.9,288.9   h38.1v41h-38.1V288.9z M131.9,337.9h38.1v41h-38.1V337.9z M202.1,500.3h-4V399.7h-61v100.6h-4V395.8h68.9V500.3z M222.4,378.9   h-38.1v-41h38.1V378.9z M222.4,329.9h-38.1v-41h38.1V329.9z M255.5,470.2H230v-25.3h25.6V470.2z M255.5,443.1H230v-25.3h25.6V443.1   z M282.8,470.2h-25.6v-25.3h25.6V470.2z M282.8,443.1h-25.6v-25.3h25.6V443.1z M289.1,337.9h38.1v41h-38.1V337.9z M379.6,500.3h-4   V399.7h-61v100.6h-4V395.8h68.9V500.3z M379.6,378.9h-38.1v-41h38.1V378.9z M379.6,288.9v41h-38.1v-41H379.6z" id="XMLID_3814_"/>
    </g>

    <image xlink:href="https://www.google.ru/search?q=images&newwindow=1&sxsrf=ALiCzsZgdRKIaP9Clnmd3Sc4SFovsZCUGw:1659901398116&source=lnms&tbm=isch&sa=X&ved=2ahUKEwiho8nJvrX5AhVmiIsKHcpuC2wQ_AUoAXoECAEQAw&biw=767&bih=752&dpr=1.25#imgrc=DH7p1w2o_fIU8M" x = "1" y = "1" height="1px" width="1px"/>
</svg>