<?xml version="1.0" ?><!DOCTYPE svg PUBLIC '-//W3C//DTD SVG 1.1//EN'  'http://www.w3.org/Graphics/SVG/1.1/DTD/svg11.dtd'>
<svg enable-background="new 206 206 100 100" height="100px" id="Calque_1" version="1.1" viewBox="206 195 100 100" width="100px" xml:space="preserve" xmlns="http://www.w3.org/2000/svg" xmlns:xlink="http://www.w3.org/1999/xlink">
    <g>
        <polygon points="290.042,227.065 290.042,235.866 282.133,232.386 282.133,227.065  "/>
        <rect height="5.334" width="12.629" x="279.773" y="219.34"/>
        <path d="M299.829,242.787v6.523h-4.646v-4.21c0-0.478-0.283-0.91-0.721-1.098l-32.142-13.858l-2.222-0.959l-3.067-1.322   c-0.148-0.066-0.311-0.1-0.475-0.1h-1.111c-0.163,0-0.326,0.034-0.475,0.1l-3.07,1.324l-2.223,0.958l-32.135,13.856   c-0.439,0.188-0.721,0.62-0.721,1.098v4.21h-4.648v-6.523l35.595-15.667l2.213-0.973l5.713-2.513h0.613l5.706,2.511l2.216,0.973   l16.238,7.147c0.004,0.002,0.006,0.002,0.009,0.006l10.291,4.527c0.001,0.002,0.006,0.002,0.008,0.005L299.829,242.787z"/>
        <path d="M245.136,255.274v37.385h21.729v-37.385H245.136z M250.474,275.84c-0.907,0-1.642-0.734-1.642-1.642   c0-0.906,0.734-1.643,1.642-1.643c0.906,0,1.643,0.736,1.643,1.643C252.117,275.106,251.381,275.84,250.474,275.84z"/>
        <path d="M238.464,287.25c-2.53-1.061-5.2,0.548-5.23,0.564c-0.314,0.194-0.709,0.23-1.054,0.098   c-0.347-0.136-0.613-0.426-0.717-0.781c-0.074-0.249-1.91-6.201-7.61-6.201c-2,0-3.689,0.626-5.025,1.86   c-1.635,1.509-2.186,3.423-2.189,3.441c-0.146,0.517-0.618,0.879-1.153,0.879c-2.467,0-4.28,0.646-5.389,1.914   c-1.014,1.162-1.266,2.654-1.312,3.635h33.601C241.504,289.788,240.188,287.972,238.464,287.25z M226.922,288.439   c-0.662,0.038-1.221-0.472-1.254-1.132c-0.023-0.364-0.227-2.214-1.896-2.214c-1.848,0-2.152,2.21-2.163,2.305   c-0.078,0.604-0.593,1.044-1.185,1.044c-0.051,0-0.102-0.003-0.154-0.012c-0.654-0.081-1.117-0.681-1.032-1.336   c0.194-1.52,1.392-4.391,4.534-4.391c3.205,0,4.204,2.931,4.281,4.481C228.088,287.844,227.583,288.405,226.922,288.439z"/>
        <path d="M301.906,289.025c-1.105-1.269-2.922-1.914-5.389-1.914c-0.539,0-1.012-0.362-1.152-0.883   c-0.005-0.015-0.556-1.929-2.188-3.438c-1.338-1.234-3.029-1.86-5.029-1.86c-5.734,0-7.591,6.14-7.609,6.201   c-0.104,0.355-0.37,0.646-0.717,0.778c-0.348,0.136-0.739,0.1-1.054-0.095c-0.023-0.013-2.738-1.62-5.242-0.559   c-1.721,0.726-3.03,2.541-3.909,5.403h33.599C303.172,291.682,302.92,290.189,301.906,289.025z M291.732,288.43   c-0.053,0.009-0.104,0.012-0.154,0.012c-0.593,0-1.106-0.44-1.186-1.044c-0.031-0.229-0.374-2.305-2.163-2.305   c-1.669,0-1.871,1.85-1.896,2.22c-0.042,0.656-0.604,1.162-1.26,1.122c-0.659-0.039-1.16-0.595-1.126-1.25   c0.078-1.551,1.076-4.481,4.281-4.481c3.143,0,4.34,2.871,4.534,4.391C292.848,287.749,292.385,288.349,291.732,288.43z"/>
        <path d="M292.792,245.885L261.03,232.19l-2.222-0.959l-2.497-1.075h-0.621l-2.499,1.077l-2.224,0.958l-31.755,13.695v33.73   c1.368-0.715,2.922-1.08,4.64-1.08c5.149,0,8.162,3.812,9.419,6.625c1.399-0.546,3.749-1.108,6.115-0.119   c1.31,0.549,2.43,1.485,3.359,2.805v-33.768c0-0.658,0.535-1.196,1.195-1.196h24.12c0.659,0,1.194,0.538,1.194,1.196v33.768   c0.929-1.319,2.051-2.256,3.36-2.805c2.365-0.991,4.717-0.427,6.114,0.119c1.257-2.813,4.271-6.625,9.418-6.625   c1.72,0,3.271,0.365,4.644,1.08v-29.099c0-0.006-0.003-0.008-0.003-0.013c0-0.001,0.003-0.006,0.003-0.013V245.885L292.792,245.885   z M239.938,271.875h-17.897c-0.66,0-1.195-0.535-1.195-1.196c0-0.66,0.535-1.195,1.195-1.195h1.475v-15.404   c0-0.658,0.535-1.196,1.195-1.196h12.706c0.662,0,1.195,0.538,1.195,1.196v15.404h1.326c0.66,0,1.195,0.535,1.195,1.195   C241.134,271.34,240.598,271.875,239.938,271.875z M289.961,271.875h-17.897c-0.66,0-1.194-0.535-1.194-1.196   c0-0.66,0.534-1.195,1.194-1.195h1.327v-15.404c0-0.658,0.533-1.196,1.195-1.196h12.706c0.657,0,1.194,0.538,1.194,1.196v15.404   h1.475c0.662,0,1.196,0.535,1.196,1.195C291.157,271.34,290.623,271.875,289.961,271.875z"/>
        <rect height="4.466" width="10.312" x="225.907" y="255.274"/>
        <rect height="7.353" width="10.312" x="225.907" y="262.131"/>
        <rect height="7.353" width="10.313" x="275.782" y="262.131"/>
        <rect height="4.466" width="10.313" x="275.782" y="255.274"/>
    </g>
</svg>