<?xml version="1.0"  encoding="iso-8859-1"?>
<!-- Generator: Adobe Illustrator 18.0.0, SVG Export Plug-In . SVG Version: 6.00 Build 0)  -->
<!DOCTYPE svg PUBLIC "-//W3C//DTD SVG 1.1//EN" "http://www.w3.org/Graphics/SVG/1.1/DTD/svg11.dtd">
<svg version="1.1" id="Capa_1" xmlns="http://www.w3.org/2000/svg" xmlns:xlink="http://www.w3.org/1999/xlink" x="0px" y="0px"
	 viewBox="0 0 294.108 294.108" style="enable-background:new 0 0 294.108 294.108;" xml:space="preserve">
<g>
	<path d="M218.304,205.541h-34.632l-12.928-20h16.06c5.523,0,10-4.479,10-10c0-5.523-4.477-10-10-10h-79.5c-5.522,0-10,4.477-10,10
		c0,5.521,4.478,10,10,10h16.06l-12.927,20H75.804c-5.522,0-10,4.477-10,10c0,5.521,4.478,10,10,10h21.707l-13.682,21.168
		c-2.998,4.637-1.668,10.828,2.971,13.826c4.639,3,10.829,1.668,13.826-2.971l20.698-32.023h51.46l20.699,32.023
		c1.913,2.961,5.127,4.572,8.408,4.572c1.859,0,3.74-0.518,5.419-1.602c4.638-2.998,5.968-9.189,2.97-13.828l-13.682-21.166h21.705
		c5.523,0,10-4.479,10-10C228.304,210.018,223.826,205.541,218.304,205.541z M134.251,205.541l12.244-18.945
		c0.246-0.381,0.87-0.383,1.118,0.002l12.243,18.943H134.251z"/>
	<path d="M29.648,252.139c0,5.522,4.478,10,10,10c5.523,0,10-4.478,10-10V132.49l-20,11.268V252.139z"/>
	<path d="M244.461,252.139c0,5.522,4.478,10,10,10c5.522,0,10-4.478,10-10v-108.38l-20-11.268V252.139z"/>
	<path d="M286.937,108.697L153.965,33.782c-4.291-2.418-9.531-2.418-13.822,0L7.171,108.697c-6.774,3.816-9.173,12.403-5.356,19.178
		c3.817,6.775,12.404,9.175,19.178,5.355l126.06-71.021l126.061,71.021c2.186,1.231,4.558,1.815,6.898,1.815
		c4.917,0,9.693-2.581,12.279-7.171C296.11,121.101,293.711,112.514,286.937,108.697z"/>
</g>
</svg>
